<svg version="1" xmlns="http://www.w3.org/2000/svg" width="933.333" height="933.333" viewBox="0 0 700.000000 700.000000"><path d="M533.7 55c-2 33.7-19.2 81.6-41.5 115.5-18.9 28.8-37.9 47.8-61.6 61.3-7.7 4.4-23.8 11.2-26.7 11.2-.5 0-.9 10.8-.9 27.3v27.2l30 52 30 52 22.7 13.2c12.6 7.3 23 13.3 23.3 13.3.9 0 10.6-19 15.5-30.5 18.9-44.4 31.5-93.1 38.1-147.5 2.1-17.9 3-69.8 1.5-88.5-3.4-41-12.6-79.4-26.5-109.9l-3.3-7.1-.6 10.5zM363 244.7c-42.7 4.3-84.5 14.2-126.5 29.8C169.1 299.6 114.1 334 73 376.7c-10.8 11.2-30.4 35.2-29.5 36.1.2.2 1.9-.5 3.8-1.6 6-3.8 26-11.3 39.2-14.7 28.5-7.5 50.9-10 80.8-9.2 21 .6 32.1 2 49.2 6.3 21 5.3 42.6 16 57.3 28.4l7.4 6.1 21.1-12.2c11.7-6.7 22-12.7 23-13.3 1-.6 15.3-24.5 31.7-53l30-51.9V244l-10.2.2c-5.7 0-11.9.3-13.8.5zM387 343.9c-4.8 1.5-8.5 3.9-12.1 7.8-5.3 5.5-7.2 9.9-7.7 18.1-.4 6.6-.2 7.8 2.8 13.8 5.1 10.3 13.2 15.2 25 15.2 11.7 0 19.9-4.9 24.9-14.8 7.1-14.3 1.7-30.9-12.4-38.2-4.3-2.3-16.1-3.4-20.5-1.9zM311.8 427.8c-11.9 7-22 13-22.4 13.4-.8.9 4.2 9.3 12.5 21.3 13.7 19.7 37.1 46.7 57.2 66 63.9 61.5 138.5 104.6 207.3 120 14.8 3.3 37.7 7 39.7 6.3.6-.2-1.8-2.2-5.3-4.4-14.6-9.3-35.6-29.3-50.7-48.3-26.7-33.7-44.2-70.2-50.1-104.9-2.3-13-2.6-33.1-.8-43.2 2.4-13.8 4.3-11.4-21-26.1L455.8 415l-61.1.1-61.2.1-21.7 12.6z"/></svg>