<svg width="16.282mm" height="17.567mm" version="1.1" viewBox="0 0 16.282 17.567" xmlns="http://www.w3.org/2000/svg">
 <g transform="translate(-130.95 -158.19)">
  <path d="m145.11 158.19c0.0212 1.6468-1.3391 5.071-3.7888 5.7288v1.5353l1.7383 3.0096 1.3287 0.76946c1.2795-2.2076 2.5117-7.3158 0.72179-11.043zm-4.2259 5.7294c-2.5514-3e-3 -7.5933 1.4805-9.9266 4.8979 1.4174-0.84293 5.0654-1.3776 6.858 0.41599l1.3301-0.76946 1.7375-3.0076zm0.21855 2.8531c-0.45006 0-0.81386 0.36535-0.81386 0.81442 0 0.45199 0.3638 0.81546 0.81386 0.81546 0.449 0 0.81544-0.36347 0.81544-0.81546 0-0.44907-0.36644-0.81442-0.81544-0.81442zm-1.7378 2.0727-1.3293 0.76688c1.2734 2.21 5.0782 5.8312 9.2035 6.1454-1.4388-0.80561-3.7243-3.6972-3.0684-6.1454l-1.3309-0.76688z" style="fill:var(--fillColor);"/>
 </g>
</svg>
