<?xml version="1.0" encoding="UTF-8" standalone="no"?>
<!-- Created with Inkscape (http://www.inkscape.org/) -->

<svg
   xmlns:dc="http://purl.org/dc/elements/1.1/"
   xmlns:cc="http://creativecommons.org/ns#"
   xmlns:rdf="http://www.w3.org/1999/02/22-rdf-syntax-ns#"
   xmlns:svg="http://www.w3.org/2000/svg"
   xmlns="http://www.w3.org/2000/svg"
   xmlns:sodipodi="http://sodipodi.sourceforge.net/DTD/sodipodi-0.dtd"
   xmlns:inkscape="http://www.inkscape.org/namespaces/inkscape"
   width="16.28166mm"
   height="17.5674mm"
   viewBox="0 0 16.28166 17.5674"
   version="1.1"
   id="svg5078"
   inkscape:version="0.92.4 (5da689c313, 2019-01-14)"
   sodipodi:docname="best_icon_filtered.svg">
  <defs
     id="defs5072">
    <filter
       inkscape:collect="always"
       style="color-interpolation-filters:sRGB"
       id="filter5703"
       x="-0.099790493"
       width="1.199581"
       y="-0.092486929"
       height="1.1849739">
      <feGaussianBlur
         inkscape:collect="always"
         stdDeviation="0.6769812"
         id="feGaussianBlur5705" />
    </filter>
  </defs>
  <sodipodi:namedview
     id="base"
     pagecolor="#ffffff"
     bordercolor="#666666"
     borderopacity="1.0"
     inkscape:pageopacity="0.0"
     inkscape:pageshadow="2"
     inkscape:zoom="7.9195959"
     inkscape:cx="17.807438"
     inkscape:cy="36.247549"
     inkscape:document-units="mm"
     inkscape:current-layer="layer1"
     showgrid="true"
     inkscape:window-width="1920"
     inkscape:window-height="1017"
     inkscape:window-x="-8"
     inkscape:window-y="-8"
     inkscape:window-maximized="1">
    <inkscape:grid
       type="xygrid"
       id="grid5629" />
  </sodipodi:namedview>
  <metadata
     id="metadata5075">
    <rdf:RDF>
      <cc:Work
         rdf:about="">
        <dc:format>image/svg+xml</dc:format>
        <dc:type
           rdf:resource="http://purl.org/dc/dcmitype/StillImage" />
        <dc:title></dc:title>
      </cc:Work>
    </rdf:RDF>
  </metadata>
  <g
     inkscape:label="Layer 1"
     inkscape:groupmode="layer"
     id="layer1"
     transform="translate(-130.95441,-158.19249)">
    <path
       style="display:inline;fill:#000000;fill-opacity:1;fill-rule:nonzero;stroke:none;stroke-width:0.35277778;filter:url(#filter5703)"
       d="m 145.10697,158.19249 c 0.0212,1.6468 -1.33906,5.07099 -3.78884,5.72885 v 1.5353 l 1.73832,3.00964 1.32873,0.76946 c 1.27953,-2.20765 2.51169,-7.31575 0.72179,-11.04325 z m -4.22593,5.72936 c -2.55137,-0.003 -7.59327,1.48048 -9.92663,4.8979 v 0 c 1.41737,-0.84293 5.06544,-1.37758 6.858,0.41599 l 1.33006,-0.76946 1.73751,-3.00757 z m 0.21855,2.85306 c -0.45006,0 -0.81386,0.36535 -0.81386,0.81442 0,0.45199 0.3638,0.81546 0.81386,0.81546 0.449,0 0.81544,-0.36347 0.81544,-0.81546 0,-0.44907 -0.36644,-0.81442 -0.81544,-0.81442 z m -1.73778,2.07274 -1.32927,0.76688 c 1.27344,2.20998 5.07815,5.8312 9.20353,6.14536 -1.4388,-0.80561 -3.72427,-3.69723 -3.06837,-6.14536 l -1.33086,-0.76688 z"
       id="path9987"
       inkscape:connector-curvature="0" />
  </g>
</svg>
