<?xml version="1.0" encoding="UTF-8" standalone="no"?>
<!-- Created with Inkscape (http://www.inkscape.org/) -->

<svg
   xmlns:dc="http://purl.org/dc/elements/1.1/"
   xmlns:cc="http://creativecommons.org/ns#"
   xmlns:rdf="http://www.w3.org/1999/02/22-rdf-syntax-ns#"
   xmlns:svg="http://www.w3.org/2000/svg"
   xmlns="http://www.w3.org/2000/svg"
   xmlns:sodipodi="http://sodipodi.sourceforge.net/DTD/sodipodi-0.dtd"
   xmlns:inkscape="http://www.inkscape.org/namespaces/inkscape"
   width="210mm"
   height="297mm"
   viewBox="0 0 210 297"
   version="1.1"
   id="svg8"
   inkscape:version="0.92.4 (5da689c313, 2019-01-14)"
   sodipodi:docname="loading-src.svg">
  <defs
     id="defs2" />
  <sodipodi:namedview
     id="base"
     pagecolor="#ffffff"
     bordercolor="#666666"
     borderopacity="1.0"
     inkscape:pageopacity="0.0"
     inkscape:pageshadow="2"
     inkscape:zoom="7.9195959"
     inkscape:cx="658.81765"
     inkscape:cy="107.60556"
     inkscape:document-units="mm"
     inkscape:current-layer="g827"
     showgrid="true"
     inkscape:object-paths="false"
     inkscape:snap-smooth-nodes="true"
     inkscape:snap-center="true"
     inkscape:window-width="1920"
     inkscape:window-height="1017"
     inkscape:window-x="-8"
     inkscape:window-y="-8"
     inkscape:window-maximized="1"
     inkscape:snap-global="true">
    <inkscape:grid
       type="xygrid"
       id="grid815" />
  </sodipodi:namedview>
  <metadata
     id="metadata5">
    <rdf:RDF>
      <cc:Work
         rdf:about="">
        <dc:format>image/svg+xml</dc:format>
        <dc:type
           rdf:resource="http://purl.org/dc/dcmitype/StillImage" />
        <dc:title></dc:title>
      </cc:Work>
    </rdf:RDF>
  </metadata>
  <g
     inkscape:label="Layer 1"
     inkscape:groupmode="layer"
     id="layer1">
    <path
       style="opacity:1;fill:#ffffff;fill-opacity:1;stroke:#000000;stroke-width:0.60000002;stroke-linecap:butt;stroke-linejoin:round;stroke-miterlimit:4;stroke-dasharray:none;stroke-dashoffset:0;stroke-opacity:1;paint-order:markers fill stroke"
       d="m 13.229167,281.125 -3.9687504,3.96875"
       id="path817"
       inkscape:connector-curvature="0" />
    <path
       style="opacity:1;fill:none;fill-opacity:1;stroke:#000000;stroke-width:0.60000002;stroke-linecap:butt;stroke-linejoin:round;stroke-miterlimit:4;stroke-dasharray:none;stroke-dashoffset:0;stroke-opacity:1;paint-order:markers fill stroke"
       d="m 9.2604166,282.44792 v 2.64583 H 11.90625"
       id="path819"
       inkscape:connector-curvature="0" />
    <g
       id="g827"
       transform="rotate(-180,13.890625,284.43229)">
      <path
         style="opacity:1;fill:#ffffff;fill-opacity:1;stroke:#000000;stroke-width:0.60000002;stroke-linecap:butt;stroke-linejoin:round;stroke-miterlimit:4;stroke-dasharray:none;stroke-dashoffset:0;stroke-opacity:1;paint-order:markers fill stroke"
         d="m 15.875,279.80208 -3.96875,3.96875"
         id="path821"
         inkscape:connector-curvature="0" />
      <path
         style="opacity:1;fill:none;fill-opacity:1;stroke:#000000;stroke-width:0.60000002;stroke-linecap:butt;stroke-linejoin:round;stroke-miterlimit:4;stroke-dasharray:none;stroke-dashoffset:0;stroke-opacity:1;paint-order:markers fill stroke"
         d="m 11.90625,281.125 v 2.64583 h 2.645833"
         id="path823"
         inkscape:connector-curvature="0" />
      <path
         style="opacity:1;fill:#ffffff;fill-opacity:1;stroke:#000000;stroke-width:0.60000002;stroke-linecap:butt;stroke-linejoin:round;stroke-miterlimit:4;stroke-dasharray:none;stroke-dashoffset:0;stroke-opacity:1;paint-order:markers fill stroke"
         d="m -2.6458334,289.0625 v 2.64583 L -3.96875,293.03125 H -6.6145833 L -7.9375,291.70833"
         id="path829"
         inkscape:connector-curvature="0" />
      <path
         style="opacity:1;fill:#ffffff;fill-opacity:1;stroke:#000000;stroke-width:0.60000002;stroke-linecap:butt;stroke-linejoin:round;stroke-miterlimit:4;stroke-dasharray:none;stroke-dashoffset:0;stroke-opacity:1;paint-order:markers fill stroke"
         d="m -8.4666667,293.82499 v -2.64583 h 2.6458333"
         id="path831"
         inkscape:connector-curvature="0" />
      <path
         inkscape:connector-curvature="0"
         id="path833"
         d="m -9.2604162,290.38542 v -2.64583 l 1.3229166,-1.32292 h 2.6458333 l 1.3229167,1.32292"
         style="opacity:1;fill:#ffffff;fill-opacity:1;stroke:#000000;stroke-width:0.60000002;stroke-linecap:butt;stroke-linejoin:round;stroke-miterlimit:4;stroke-dasharray:none;stroke-dashoffset:0;stroke-opacity:1;paint-order:markers fill stroke" />
      <path
         inkscape:connector-curvature="0"
         id="path835"
         d="m -3.4395833,285.62292 v 2.64583 h -2.6458333"
         style="opacity:1;fill:#ffffff;fill-opacity:1;stroke:#000000;stroke-width:0.60000002;stroke-linecap:butt;stroke-linejoin:round;stroke-miterlimit:4;stroke-dasharray:none;stroke-dashoffset:0;stroke-opacity:1;paint-order:markers fill stroke" />
      <path
         style="opacity:1;fill:#ffffff;fill-opacity:1;stroke:none;stroke-width:0.60000002;stroke-linecap:butt;stroke-linejoin:round;stroke-miterlimit:4;stroke-dasharray:none;stroke-dashoffset:0;stroke-opacity:1;paint-order:markers fill stroke"
         d="m -9.7895829,290.65 1.3229167,-1.32292 0.5291662,0.52917 -1.3229167,1.32291 z"
         id="path843"
         inkscape:connector-curvature="0"
         sodipodi:nodetypes="ccccc" />
      <path
         sodipodi:nodetypes="ccccc"
         inkscape:connector-curvature="0"
         id="path845"
         d="m -3.7041667,289.59167 1.3229167,-1.32292 0.5291662,0.52917 -1.3229167,1.32291 z"
         style="opacity:1;fill:#ffffff;fill-opacity:1;stroke:none;stroke-width:0.60000002;stroke-linecap:butt;stroke-linejoin:round;stroke-miterlimit:4;stroke-dasharray:none;stroke-dashoffset:0;stroke-opacity:1;paint-order:markers fill stroke" />
      <path
         inkscape:connector-curvature="0"
         id="path847"
         d="m -19.84375,289.0625 v 2.64583 l -1.322917,1.32292 H -23.8125 l -1.322917,-1.32292"
         style="opacity:1;fill:#ffffff;fill-opacity:1;stroke:#000000;stroke-width:0.60000002;stroke-linecap:butt;stroke-linejoin:round;stroke-miterlimit:4;stroke-dasharray:none;stroke-dashoffset:0;stroke-opacity:1;paint-order:markers fill stroke" />
      <path
         style="opacity:1;fill:none;fill-opacity:1;stroke:#000000;stroke-width:2.26771665;stroke-linecap:round;stroke-linejoin:round;stroke-miterlimit:4;stroke-dasharray:none;stroke-dashoffset:0;stroke-opacity:1;paint-order:markers fill stroke"
         d="m 252.01172,1041.1699 c -2.41866,-2.3366 -5.64873,-3.645 -9.01172,-3.6504 -7.1797,0 -12.99999,5.8203 -13,13 m 26,0 c -0.005,-1.7783 -0.37574,-3.5365 -1.08789,-5.166"
         transform="matrix(-0.26458333,0,0,-0.26458333,27.78125,568.86458)"
         id="path851"
         inkscape:connector-curvature="0"
         sodipodi:nodetypes="ccccc" />
      <path
         style="color:#000000;font-style:normal;font-variant:normal;font-weight:normal;font-stretch:normal;font-size:medium;line-height:normal;font-family:sans-serif;font-variant-ligatures:normal;font-variant-position:normal;font-variant-caps:normal;font-variant-numeric:normal;font-variant-alternates:normal;font-feature-settings:normal;text-indent:0;text-align:start;text-decoration:none;text-decoration-line:none;text-decoration-style:solid;text-decoration-color:#000000;letter-spacing:normal;word-spacing:normal;text-transform:none;writing-mode:lr-tb;direction:ltr;text-orientation:mixed;dominant-baseline:auto;baseline-shift:baseline;text-anchor:start;white-space:normal;shape-padding:0;clip-rule:nonzero;display:inline;overflow:visible;visibility:visible;opacity:1;isolation:auto;mix-blend-mode:normal;color-interpolation:sRGB;color-interpolation-filters:linearRGB;solid-color:#000000;solid-opacity:1;vector-effect:none;fill:#a1a1a1;fill-opacity:1;fill-rule:nonzero;stroke:none;stroke-width:2.26771665;stroke-linecap:round;stroke-linejoin:round;stroke-miterlimit:4;stroke-dasharray:none;stroke-dashoffset:0;stroke-opacity:1;paint-order:markers fill stroke;color-rendering:auto;image-rendering:auto;shape-rendering:auto;text-rendering:auto;enable-background:accumulate"
         d="M 310.13672 1032.1738 A 1.1339717 1.1339717 0 0 0 309.04297 1033.6523 L 310.17578 1038.375 C 308.01909 1037.0966 305.55028 1036.3889 303.00391 1036.3848 A 1.1339717 1.1339717 0 0 0 302.99609 1036.3848 C 295.24052 1036.3848 288.93269 1042.6703 288.87305 1050.4121 A 1.1339717 1.1339717 0 0 0 288.86719 1050.5156 A 1.1339717 1.1339717 0 0 0 288.86719 1050.5215 A 1.1339717 1.1339717 0 0 0 288.86719 1050.5234 A 1.1339717 1.1339717 0 0 0 288.86719 1050.5273 A 1.1339717 1.1339717 0 0 0 288.87305 1050.6348 C 288.89271 1052.5318 289.28905 1054.4061 290.04883 1056.1445 A 1.1355423 1.1355423 0 1 0 292.13086 1055.2363 C 291.48097 1053.7493 291.13952 1052.1436 291.13477 1050.5215 C 291.13476 1050.5208 291.13477 1050.5202 291.13477 1050.5195 C 291.13583 1043.9535 296.42983 1038.6523 302.99609 1038.6523 C 305.32277 1038.6552 307.57739 1039.347 309.49414 1040.6094 L 303.9707 1041.9355 A 1.1339717 1.1339717 0 0 0 304.19336 1044.1797 A 1.1339717 1.1339717 0 0 0 304.49609 1044.1426 L 312.14062 1042.3008 A 1.1354496 1.1354496 0 0 0 313.04102 1041.6445 A 1.1339717 1.1339717 0 0 0 313.08008 1041.5508 A 1.1354496 1.1354496 0 0 0 313.08008 1041.5488 A 1.1354496 1.1354496 0 0 0 313.08398 1041.541 A 1.1339717 1.1339717 0 0 0 313.13477 1041.332 A 1.1354496 1.1354496 0 0 0 313.13477 1041.3301 A 1.1354496 1.1354496 0 0 0 313.13672 1041.3203 A 1.1339717 1.1339717 0 0 0 313.11719 1040.9023 L 311.24219 1033.1289 A 1.1339717 1.1339717 0 0 0 310.13672 1032.1738 z M 314.86523 1044.2168 A 1.1355423 1.1355423 0 0 0 313.87109 1045.8047 C 314.52098 1047.2917 314.86243 1048.8974 314.86719 1050.5195 C 314.86719 1050.5202 314.86719 1050.5208 314.86719 1050.5215 C 314.86612 1057.0875 309.57017 1062.3906 303.00391 1062.3906 C 300.67634 1062.3878 298.42308 1061.6949 296.50586 1060.4316 L 302.0293 1059.1055 A 1.1339717 1.1339717 0 0 0 301.80859 1056.8613 A 1.1339717 1.1339717 0 0 0 301.50586 1056.8984 L 293.85938 1058.7402 A 1.1354496 1.1354496 0 0 0 292.89258 1059.582 A 1.1354496 1.1354496 0 0 0 292.88867 1059.5977 A 1.1339717 1.1339717 0 0 0 292.85547 1059.8223 A 1.1339717 1.1339717 0 0 0 292.88281 1060.1387 L 294.75781 1067.9121 A 1.1339717 1.1339717 0 1 0 296.95898 1067.3887 L 295.82812 1062.668 C 297.98417 1063.9453 300.45081 1064.6521 302.99609 1064.6562 A 1.1339717 1.1339717 0 0 0 303.00391 1064.6562 C 310.75422 1064.6562 317.05888 1058.3791 317.12695 1050.6445 A 1.1339717 1.1339717 0 0 0 317.13281 1050.5195 A 1.1339717 1.1339717 0 0 0 317.13281 1050.5137 C 317.1328 1050.5104 317.13282 1050.5072 317.13281 1050.5039 A 1.1339717 1.1339717 0 0 0 317.125 1050.3848 C 317.10253 1048.4951 316.71002 1046.6283 315.95312 1044.8965 A 1.1355423 1.1355423 0 0 0 314.86523 1044.2168 z "
         transform="matrix(-0.26458333,0,0,-0.26458333,27.78125,568.86458)"
         id="path861" />
      <path
         inkscape:connector-curvature="0"
         id="path880"
         d="M -26.722917,299.64583 V 297 h 2.645833"
         style="opacity:1;fill:#ffffff;fill-opacity:1;stroke:#000000;stroke-width:0.60000002;stroke-linecap:butt;stroke-linejoin:round;stroke-miterlimit:4;stroke-dasharray:none;stroke-dashoffset:0;stroke-opacity:1;paint-order:markers fill stroke"
         inkscape:transform-center-x="1.3229162"
         inkscape:transform-center-y="-1.3229183" />
      <path
         inkscape:transform-center-y="-0.78929333"
         inkscape:transform-center-x="0.91716983"
         style="opacity:1;fill:none;fill-opacity:1;stroke:#000000;stroke-width:0.60000002;stroke-linecap:round;stroke-linejoin:round;stroke-miterlimit:4;stroke-dasharray:none;stroke-dashoffset:0;stroke-opacity:1;paint-order:markers fill stroke"
         d="m -38.93598,294.94642 -0.255762,-1.83434 1.834339,-0.25576"
         id="path882"
         inkscape:connector-curvature="0"
         sodipodi:nodetypes="ccc" />
      <path
         sodipodi:nodetypes="ccccc"
         inkscape:connector-curvature="0"
         id="path884"
         d="m -69.323934,293.38838 c 0.639937,0.61823 1.494559,0.96441 2.38435,0.96584 1.899629,0 3.439581,-1.53996 3.439584,-3.43959 m -6.879167,0 c 0.0013,0.47051 0.09941,0.9357 0.287838,1.36684"
         style="opacity:1;fill:none;fill-opacity:1;stroke:#000000;stroke-width:0.4;stroke-linecap:round;stroke-linejoin:round;stroke-miterlimit:4;stroke-dasharray:none;stroke-dashoffset:0;stroke-opacity:1;paint-order:markers fill stroke" />
      <path
         sodipodi:nodetypes="ccc"
         inkscape:connector-curvature="0"
         id="path886"
         d="m -69.363064,294.94642 -0.255762,-1.83434 1.834339,-0.25576"
         style="opacity:1;fill:none;fill-opacity:1;stroke:#000000;stroke-width:0.4;stroke-linecap:round;stroke-linejoin:round;stroke-miterlimit:4;stroke-dasharray:none;stroke-dashoffset:0;stroke-opacity:1;paint-order:markers fill stroke"
         inkscape:transform-center-x="0.91716983"
         inkscape:transform-center-y="-0.78929333" />
      <path
         style="opacity:1;fill:none;fill-opacity:1;stroke:#000000;stroke-width:0.4;stroke-linecap:round;stroke-linejoin:round;stroke-miterlimit:4;stroke-dasharray:none;stroke-dashoffset:0;stroke-opacity:1;paint-order:markers fill stroke"
         d="m -64.555238,288.44083 c -0.639937,-0.61823 -1.494559,-0.96441 -2.38435,-0.96584 -1.899629,0 -3.439581,1.53996 -3.439584,3.43959 m 6.879167,0 c -0.0013,-0.47051 -0.09941,-0.9357 -0.287838,-1.36684"
         id="path888"
         inkscape:connector-curvature="0"
         sodipodi:nodetypes="ccccc" />
      <path
         inkscape:transform-center-y="-0.78929333"
         inkscape:transform-center-x="0.91716983"
         style="opacity:1;fill:none;fill-opacity:1;stroke:#000000;stroke-width:0.4;stroke-linecap:round;stroke-linejoin:round;stroke-miterlimit:4;stroke-dasharray:none;stroke-dashoffset:0;stroke-opacity:1;paint-order:markers fill stroke"
         d="m -64.516108,286.88279 0.255762,1.83434 -1.834339,0.25576"
         id="path890"
         inkscape:connector-curvature="0"
         sodipodi:nodetypes="ccc" />
      <path
         style="opacity:1;fill:none;fill-opacity:1;stroke:#000000;stroke-width:0.40000001;stroke-linecap:round;stroke-linejoin:round;stroke-miterlimit:4;stroke-dasharray:none;stroke-dashoffset:0;stroke-opacity:1;paint-order:markers fill stroke"
         d="m -96.311434,293.38838 c 0.639937,0.61823 1.494559,0.96441 2.38435,0.96584 1.899629,0 3.439581,-1.53996 3.439584,-3.43959 m -6.879167,0 c 0.0013,0.47051 0.09941,0.9357 0.287838,1.36684"
         id="path898"
         inkscape:connector-curvature="0"
         sodipodi:nodetypes="ccccc" />
      <path
         inkscape:transform-center-y="-0.78929333"
         inkscape:transform-center-x="0.91716983"
         style="opacity:1;fill:none;fill-opacity:1;stroke:#000000;stroke-width:0.40000001;stroke-linecap:round;stroke-linejoin:round;stroke-miterlimit:4;stroke-dasharray:none;stroke-dashoffset:0;stroke-opacity:1;paint-order:markers fill stroke"
         d="m -96.350564,294.94642 -0.255762,-1.83434 1.834339,-0.25576"
         id="path900"
         inkscape:connector-curvature="0"
         sodipodi:nodetypes="ccc" />
      <path
         sodipodi:nodetypes="ccccc"
         inkscape:connector-curvature="0"
         id="path902"
         d="m -91.542738,288.44083 c -0.639937,-0.61823 -1.494559,-0.96441 -2.38435,-0.96584 -1.899629,0 -3.439581,1.53996 -3.439584,3.43959 m 6.879167,0 c -0.0013,-0.47051 -0.09941,-0.9357 -0.287838,-1.36684"
         style="opacity:1;fill:none;fill-opacity:1;stroke:#000000;stroke-width:0.40000001;stroke-linecap:round;stroke-linejoin:round;stroke-miterlimit:4;stroke-dasharray:none;stroke-dashoffset:0;stroke-opacity:1;paint-order:markers fill stroke" />
      <path
         sodipodi:nodetypes="ccc"
         inkscape:connector-curvature="0"
         id="path904"
         d="m -91.503608,286.88279 0.255762,1.83434 -1.834339,0.25576"
         style="opacity:1;fill:none;fill-opacity:1;stroke:#000000;stroke-width:0.40000001;stroke-linecap:round;stroke-linejoin:round;stroke-miterlimit:4;stroke-dasharray:none;stroke-dashoffset:0;stroke-opacity:1;paint-order:markers fill stroke"
         inkscape:transform-center-x="0.91716983"
         inkscape:transform-center-y="-0.78929333" />
      <path
         style="color:#000000;font-style:normal;font-variant:normal;font-weight:normal;font-stretch:normal;font-size:medium;line-height:normal;font-family:sans-serif;font-variant-ligatures:normal;font-variant-position:normal;font-variant-caps:normal;font-variant-numeric:normal;font-variant-alternates:normal;font-feature-settings:normal;text-indent:0;text-align:start;text-decoration:none;text-decoration-line:none;text-decoration-style:solid;text-decoration-color:#000000;letter-spacing:normal;word-spacing:normal;text-transform:none;writing-mode:lr-tb;direction:ltr;text-orientation:mixed;dominant-baseline:auto;baseline-shift:baseline;text-anchor:start;white-space:normal;shape-padding:0;clip-rule:nonzero;display:inline;overflow:visible;visibility:visible;opacity:1;isolation:auto;mix-blend-mode:normal;color-interpolation:sRGB;color-interpolation-filters:linearRGB;solid-color:#000000;solid-opacity:1;vector-effect:none;fill:#000000;fill-opacity:1;fill-rule:nonzero;stroke:none;stroke-width:0.40000001;stroke-linecap:round;stroke-linejoin:round;stroke-miterlimit:4;stroke-dasharray:none;stroke-dashoffset:0;stroke-opacity:1;paint-order:markers fill stroke;color-rendering:auto;image-rendering:auto;shape-rendering:auto;text-rendering:auto;enable-background:accumulate"
         d="m -115.65289,295.14744 a 0.20025264,0.20025264 0 0 0 0.185,-0.22945 l -0.17983,-1.28416 c 0.66285,0.58762 1.51683,0.91946 2.40605,0.92089 2.00773,0 3.63905,-1.63291 3.63906,-3.64062 a 0.20002,0.20002 0 0 0 -0.001,-0.0207 c -0.004,-0.49104 -0.10727,-0.97703 -0.30385,-1.42679 a 0.20002,0.20002 0 0 0 -0.18965,-0.12092 0.20002,0.20002 0 0 0 -0.1757,0.28112 c 0.17753,0.40616 0.2688,0.84437 0.26975,1.28725 -10e-6,1.79155 -1.44701,3.24012 -3.23857,3.24012 -0.8337,-10e-4 -1.63431,-0.32465 -2.23604,-0.90123 l 1.41801,-0.19843 a 0.20028752,0.20028752 0 0 0 -0.0413,-0.39844 0.20002,0.20002 0 0 0 -0.0134,0.002 l -1.834,0.2558 a 0.20002,0.20002 0 0 0 -0.17208,0.22686 l 0.2558,1.83401 a 0.20025264,0.20025264 0 0 0 0.21187,0.17259 z m -0.73277,-2.666 a 0.20029502,0.20029502 0 0 0 0.17518,-0.28006 c -0.17752,-0.40619 -0.27036,-0.84436 -0.2713,-1.28728 0,-1.79154 1.44857,-3.23855 3.24011,-3.23855 0.8347,9.8e-4 1.63462,0.3239 2.23656,0.90175 l -1.42007,0.19791 a 0.20032272,0.20032272 0 1 0 0.0548,0.39688 l 1.83606,-0.25631 a 0.20002,0.20002 0 0 0 0.17002,-0.22635 l -0.25632,-1.83398 a 0.20002,0.20002 0 0 0 -0.20877,-0.17571 0.20002,0.20002 0 0 0 -0.18758,0.23048 l 0.1788,1.28159 c -0.6625,-0.586 -1.5154,-0.91483 -2.40348,-0.91623 -2.00282,0 -3.63217,1.62306 -3.64008,3.62405 a 0.20002,0.20002 0 0 0 -5.2e-4,0.0155 0.200195,0.200195 0 0 0 0,0.001 c 0.001,0.4981 0.10554,0.98927 0.30489,1.44539 a 0.20029502,0.20029502 0 0 0 0.19172,0.11988 z"
         id="path906"
         inkscape:connector-curvature="0" />
      <ellipse
         style="opacity:1;fill:none;fill-opacity:1;stroke:#000000;stroke-width:0.4;stroke-linecap:round;stroke-linejoin:round;stroke-miterlimit:4;stroke-dasharray:none;stroke-dashoffset:0;stroke-opacity:1;paint-order:markers fill stroke"
         id="path1493"
         cx="93.927086"
         cy="-304.9375"
         transform="scale(-1)"
         rx="3.9687507"
         ry="3.9687459" />
      <path
         style="opacity:1;fill:none;fill-opacity:1;stroke:#000000;stroke-width:0.6;stroke-linecap:round;stroke-linejoin:round;stroke-miterlimit:4;stroke-dasharray:none;stroke-dashoffset:0;stroke-opacity:1;paint-order:markers fill stroke"
         d="m -93.92708,305.60841 v -2.89152"
         id="path1495"
         inkscape:connector-curvature="0" />
      <path
         style="opacity:1;fill:none;fill-opacity:1;stroke:#000000;stroke-width:0.6;stroke-linecap:round;stroke-linejoin:round;stroke-miterlimit:4;stroke-dasharray:none;stroke-dashoffset:0;stroke-opacity:1;paint-order:markers fill stroke"
         d="m -93.92708,306.89352 v 0.32129"
         id="path1497"
         inkscape:connector-curvature="0" />
      <rect
         style="opacity:1;fill:#000000;fill-opacity:1;stroke:none;stroke-width:0.60000002;stroke-linecap:round;stroke-linejoin:round;stroke-miterlimit:4;stroke-dasharray:none;stroke-dashoffset:0;stroke-opacity:1;paint-order:markers fill stroke"
         id="rect1499"
         width="7.9375"
         height="7.9375"
         x="104.51041"
         y="-308.90625"
         transform="scale(-1)" />
      <rect
         transform="scale(-1)"
         y="-308.37708"
         x="105.03958"
         height="6.8791599"
         width="6.8791461"
         id="rect1501"
         style="opacity:1;fill:#fafafa;fill-opacity:1;stroke:none;stroke-width:0.60000002;stroke-linecap:round;stroke-linejoin:round;stroke-miterlimit:4;stroke-dasharray:none;stroke-dashoffset:0;stroke-opacity:1;paint-order:markers fill stroke" />
      <rect
         style="opacity:1;fill:#fafafa;fill-opacity:1;stroke:none;stroke-width:0.60000002;stroke-linecap:round;stroke-linejoin:round;stroke-miterlimit:4;stroke-dasharray:none;stroke-dashoffset:0;stroke-opacity:1;paint-order:markers fill stroke"
         id="rect1503"
         width="0.79374999"
         height="1.3229166"
         x="111.125"
         y="-309.43539"
         transform="scale(-1)" />
      <rect
         transform="scale(-1)"
         y="-301.76248"
         x="105.03958"
         height="1.3229166"
         width="0.79374999"
         id="rect1505"
         style="opacity:1;fill:#fafafa;fill-opacity:1;stroke:none;stroke-width:0.60000002;stroke-linecap:round;stroke-linejoin:round;stroke-miterlimit:4;stroke-dasharray:none;stroke-dashoffset:0;stroke-opacity:1;paint-order:markers fill stroke" />
      <path
         style="opacity:1;fill:#000000;fill-opacity:1;stroke:none;stroke-width:0.60000002;stroke-linecap:round;stroke-linejoin:round;stroke-miterlimit:4;stroke-dasharray:none;stroke-dashoffset:0;stroke-opacity:1;paint-order:markers fill stroke"
         d="m -108.03268,305.46666 h -0.89297 v -2.64583 h 0.89297 z"
         id="rect1509"
         inkscape:connector-curvature="0" />
      <path
         inkscape:connector-curvature="0"
         id="path1512"
         d="m -108.03268,306.92187 h -0.89297 v -0.79374 h 0.89297 z"
         style="opacity:1;fill:#000000;fill-opacity:1;stroke:none;stroke-width:0.60000002;stroke-linecap:round;stroke-linejoin:round;stroke-miterlimit:4;stroke-dasharray:none;stroke-dashoffset:0;stroke-opacity:1;paint-order:markers fill stroke" />
      <rect
         transform="scale(-1)"
         y="-308.64166"
         x="131.23331"
         height="7.4083266"
         width="7.4083638"
         id="rect1514"
         style="opacity:1;fill:none;fill-opacity:1;stroke:#000000;stroke-width:0.60000002;stroke-linecap:round;stroke-linejoin:round;stroke-miterlimit:4;stroke-dasharray:none;stroke-dashoffset:0;stroke-opacity:1;paint-order:markers fill stroke" />
      <rect
         style="opacity:1;fill:#fafafa;fill-opacity:1;stroke:none;stroke-width:0.60000002;stroke-linecap:round;stroke-linejoin:round;stroke-miterlimit:4;stroke-dasharray:none;stroke-dashoffset:0;stroke-opacity:1;paint-order:markers fill stroke"
         id="rect1516"
         width="6.8791461"
         height="6.8791599"
         x="131.49791"
         y="-308.37708"
         transform="scale(-1)" />
      <rect
         transform="scale(-1)"
         y="-309.43539"
         x="137.58333"
         height="1.3229166"
         width="0.79374999"
         id="rect1518"
         style="opacity:1;fill:#fafafa;fill-opacity:1;stroke:none;stroke-width:0.60000002;stroke-linecap:round;stroke-linejoin:round;stroke-miterlimit:4;stroke-dasharray:none;stroke-dashoffset:0;stroke-opacity:1;paint-order:markers fill stroke" />
      <rect
         style="opacity:1;fill:#fafafa;fill-opacity:1;stroke:none;stroke-width:0.60000002;stroke-linecap:round;stroke-linejoin:round;stroke-miterlimit:4;stroke-dasharray:none;stroke-dashoffset:0;stroke-opacity:1;paint-order:markers fill stroke"
         id="rect1520"
         width="0.79374999"
         height="1.3229166"
         x="131.49791"
         y="-301.76248"
         transform="scale(-1)" />
      <path
         inkscape:connector-curvature="0"
         id="path1522"
         d="m -134.491,305.46666 h -0.89297 v -2.64583 h 0.89297 z"
         style="opacity:1;fill:#000000;fill-opacity:1;stroke:none;stroke-width:0.60000002;stroke-linecap:round;stroke-linejoin:round;stroke-miterlimit:4;stroke-dasharray:none;stroke-dashoffset:0;stroke-opacity:1;paint-order:markers fill stroke" />
      <path
         style="opacity:1;fill:#000000;fill-opacity:1;stroke:none;stroke-width:0.60000002;stroke-linecap:round;stroke-linejoin:round;stroke-miterlimit:4;stroke-dasharray:none;stroke-dashoffset:0;stroke-opacity:1;paint-order:markers fill stroke"
         d="m -134.491,306.92187 h -0.89297 v -0.79374 h 0.89297 z"
         id="path1524"
         inkscape:connector-curvature="0" />
      <path
         style="color:#000000;font-style:normal;font-variant:normal;font-weight:normal;font-stretch:normal;font-size:medium;line-height:normal;font-family:sans-serif;font-variant-ligatures:normal;font-variant-position:normal;font-variant-caps:normal;font-variant-numeric:normal;font-variant-alternates:normal;font-feature-settings:normal;text-indent:0;text-align:start;text-decoration:none;text-decoration-line:none;text-decoration-style:solid;text-decoration-color:#000000;letter-spacing:normal;word-spacing:normal;text-transform:none;writing-mode:lr-tb;direction:ltr;text-orientation:mixed;dominant-baseline:auto;baseline-shift:baseline;text-anchor:start;white-space:normal;shape-padding:0;clip-rule:nonzero;display:inline;overflow:visible;visibility:visible;opacity:1;isolation:auto;mix-blend-mode:normal;color-interpolation:sRGB;color-interpolation-filters:linearRGB;solid-color:#000000;solid-opacity:1;vector-effect:none;fill:#000000;fill-opacity:1;fill-rule:nonzero;stroke:none;stroke-width:2.26771665;stroke-linecap:round;stroke-linejoin:round;stroke-miterlimit:4;stroke-dasharray:none;stroke-dashoffset:0;stroke-opacity:1;paint-order:markers fill stroke;color-rendering:auto;image-rendering:auto;shape-rendering:auto;text-rendering:auto;enable-background:accumulate"
         d="M 645 982.38672 A 1.1339717 1.1339717 0 0 0 643.86328 983.51562 L 643.86328 1011.5234 A 1.1339717 1.1339717 0 0 0 645 1012.6523 L 646 1012.6523 L 646 1010.5195 L 646 1009.5195 L 646 984.51953 L 669 984.51953 L 669 982.38672 L 645 982.38672 z M 672 982.38672 L 672 984.51953 L 672 985.51953 L 672 1010.5195 L 649 1010.5195 L 649 1012.6523 L 673 1012.6523 A 1.1339717 1.1339717 0 0 0 674.13672 1011.5234 L 674.13672 983.51562 A 1.1339717 1.1339717 0 0 0 673 982.38672 L 672 982.38672 z M 657.3125 990.01953 L 657.3125 993.01953 L 660.6875 993.01953 L 660.6875 990.01953 L 657.3125 990.01953 z M 657.3125 995.51953 L 657.3125 1005.5195 L 660.6875 1005.5195 L 660.6875 995.51953 L 657.3125 995.51953 z "
         transform="matrix(-0.26458333,0,0,-0.26458333,27.78125,568.86458)"
         id="rect1526" />
    </g>
  </g>
</svg>
